<svg xmlns="http://www.w3.org/2000/svg" viewBox="0 0 64 64" role="img" aria-label="Paper favicon">
  <defs>
    <linearGradient id="paperBg" x1="0" y1="0" x2="1" y2="1">
      <stop offset="0%" stop-color="#0ea5e9"/>
      <stop offset="100%" stop-color="#2563eb"/>
    </linearGradient>
  </defs>
  <rect width="64" height="64" rx="14" fill="url(#paperBg)"/>
  <path d="M20 14h18l10 10v26a4 4 0 0 1-4 4H20a4 4 0 0 1-4-4V18a4 4 0 0 1 4-4z" fill="#ffffff"/>
  <path d="M38 14v8a4 4 0 0 0 4 4h8" fill="#dbeafe"/>
  <rect x="24" y="30" width="16" height="3" rx="1.5" fill="#1d4ed8"/>
  <rect x="24" y="37" width="20" height="3" rx="1.5" fill="#1d4ed8" opacity="0.9"/>
  <rect x="24" y="44" width="14" height="3" rx="1.5" fill="#1d4ed8" opacity="0.8"/>
</svg>
